<svg xmlns="http://www.w3.org/2000/svg" viewBox="0 0 76.9 34.06"><defs><style>.cls-1,.cls-2{fill:none;stroke:#00a1d8;stroke-width:2.5px;}.cls-1{stroke-linecap:round;stroke-linejoin:round;}.cls-2{stroke-miterlimit:10;}</style></defs><title>chuteiras</title><g id="Camada_2" data-name="Camada 2"><g id="Camada_1-2" data-name="Camada 1"><path class="cls-1" d="M3.33,3.13s-4.69,13.38,0,23.69H66.27s9.19-1.81,9.38-8.94c0,0,.13-4.69-5.87-6.31l-13.12-.5S50.15,10.81,38,1.25c0,0-5.06,6.19-9.38,8.06,0,0-10.31,1.56-15.62-.19A29.14,29.14,0,0,1,3.33,3.13Z"/><line class="cls-1" x1="47.05" y1="7.39" x2="29.58" y2="26.81"/><line class="cls-1" x1="52.99" y1="10.16" x2="39.21" y2="26.81"/><rect class="cls-2" x="6.65" y="26.81" width="5.69" height="6"/><rect class="cls-2" x="17.65" y="26.81" width="5.69" height="6"/><rect class="cls-2" x="49.46" y="26.81" width="5.69" height="6"/><rect class="cls-2" x="60.46" y="26.81" width="5.69" height="6"/></g></g></svg>