<svg width="135" height="33" viewBox="0 0 135 33" version="1.1" xmlns="http://www.w3.org/2000/svg" xmlns:xlink="http://www.w3.org/1999/xlink">
<title>Canvas</title>
<desc>Created using Figma</desc>
<g id="Canvas" transform="translate(434 1186)">
<g id="Digistore">
<use xlink:href="#path0_fill" transform="translate(-392.304 -1176.51)" fill="#00A1D8"/>
<use xlink:href="#path1_fill" transform="translate(-392.304 -1176.51)" fill="#00A1D8"/>
<use xlink:href="#path2_fill" transform="translate(-392.304 -1176.51)" fill="#00A1D8"/>
<use xlink:href="#path3_fill" transform="translate(-392.304 -1176.51)" fill="#00A1D8"/>
<use xlink:href="#path4_fill" transform="translate(-392.304 -1176.51)" fill="#00A1D8"/>
<use xlink:href="#path5_fill" transform="translate(-392.304 -1176.51)" fill="#00A1D8"/>
<use xlink:href="#path6_fill" transform="translate(-392.304 -1176.51)" fill="#00A1D8"/>
<use xlink:href="#path7_fill" transform="translate(-392.304 -1176.51)" fill="#00A1D8"/>
<use xlink:href="#path8_fill" transform="translate(-392.304 -1176.51)" fill="#00A1D8"/>
</g>
<g id="Vector">
<use xlink:href="#path9_stroke" transform="translate(-433 -1185)" fill="#00A1D8"/>
</g>
</g>
<defs>
<path id="path0_fill" d="M 14.904 8.916C 14.904 10.204 14.7 11.376 14.292 12.432C 13.884 13.488 13.308 14.392 12.564 15.144C 11.82 15.896 10.924 16.48 9.876 16.896C 8.836 17.304 7.684 17.508 6.42 17.508L 0 17.508L 0 0.312L 6.42 0.312C 7.684 0.312 8.836 0.52 9.876 0.936C 10.924 1.344 11.82 1.928 12.564 2.688C 13.308 3.44 13.884 4.344 14.292 5.4C 14.7 6.456 14.904 7.628 14.904 8.916ZM 12.516 8.916C 12.516 7.86 12.372 6.916 12.084 6.084C 11.796 5.252 11.388 4.548 10.86 3.972C 10.332 3.396 9.692 2.956 8.94 2.652C 8.188 2.348 7.348 2.196 6.42 2.196L 2.328 2.196L 2.328 15.624L 6.42 15.624C 7.348 15.624 8.188 15.472 8.94 15.168C 9.692 14.864 10.332 14.428 10.86 13.86C 11.388 13.284 11.796 12.58 12.084 11.748C 12.372 10.916 12.516 9.972 12.516 8.916Z"/>
<path id="path1_fill" d="M 19.7754 5.352L 19.7754 17.508L 17.6394 17.508L 17.6394 5.352L 19.7754 5.352ZM 20.2314 1.536C 20.2314 1.744 20.1874 1.94 20.0994 2.124C 20.0194 2.3 19.9074 2.46 19.7634 2.604C 19.6274 2.74 19.4634 2.848 19.2714 2.928C 19.0874 3.008 18.8914 3.048 18.6834 3.048C 18.4754 3.048 18.2794 3.008 18.0954 2.928C 17.9194 2.848 17.7634 2.74 17.6274 2.604C 17.4914 2.46 17.3834 2.3 17.3034 2.124C 17.2234 1.94 17.1834 1.744 17.1834 1.536C 17.1834 1.328 17.2234 1.132 17.3034 0.948C 17.3834 0.756 17.4914 0.592 17.6274 0.456C 17.7634 0.312 17.9194 0.2 18.0954 0.12C 18.2794 0.04 18.4754 0 18.6834 0C 18.8914 0 19.0874 0.04 19.2714 0.12C 19.4634 0.2 19.6274 0.312 19.7634 0.456C 19.9074 0.592 20.0194 0.756 20.0994 0.948C 20.1874 1.132 20.2314 1.328 20.2314 1.536Z"/>
<path id="path2_fill" d="M 27.5211 11.568C 27.9531 11.568 28.3331 11.508 28.6611 11.388C 28.9891 11.268 29.2651 11.1 29.4891 10.884C 29.7131 10.668 29.8811 10.412 29.9931 10.116C 30.1051 9.812 30.1611 9.48 30.1611 9.12C 30.1611 8.376 29.9331 7.784 29.4771 7.344C 29.0291 6.904 28.3771 6.684 27.5211 6.684C 26.6571 6.684 25.9971 6.904 25.5411 7.344C 25.0931 7.784 24.8691 8.376 24.8691 9.12C 24.8691 9.48 24.9251 9.812 25.0371 10.116C 25.1571 10.412 25.3291 10.668 25.5531 10.884C 25.7771 11.1 26.0531 11.268 26.3811 11.388C 26.7091 11.508 27.0891 11.568 27.5211 11.568ZM 31.3731 18.168C 31.3731 17.872 31.2891 17.632 31.1211 17.448C 30.9531 17.264 30.7251 17.12 30.4371 17.016C 30.1571 16.912 29.8291 16.84 29.4531 16.8C 29.0771 16.752 28.6771 16.716 28.2531 16.692C 27.8371 16.668 27.4131 16.644 26.9811 16.62C 26.5491 16.596 26.1331 16.556 25.7331 16.5C 25.2851 16.708 24.9171 16.972 24.6291 17.292C 24.3491 17.604 24.2091 17.972 24.2091 18.396C 24.2091 18.668 24.2771 18.92 24.4131 19.152C 24.5571 19.392 24.7731 19.596 25.0611 19.764C 25.3491 19.94 25.7091 20.076 26.1411 20.172C 26.5811 20.276 27.0971 20.328 27.6891 20.328C 28.2651 20.328 28.7811 20.276 29.2371 20.172C 29.6931 20.068 30.0771 19.92 30.3891 19.728C 30.7091 19.536 30.9531 19.308 31.1211 19.044C 31.2891 18.78 31.3731 18.488 31.3731 18.168ZM 33.5451 5.832L 33.5451 6.624C 33.5451 6.888 33.3771 7.056 33.0411 7.128L 31.6611 7.308C 31.9331 7.836 32.0691 8.42 32.0691 9.06C 32.0691 9.652 31.9531 10.192 31.7211 10.68C 31.4971 11.16 31.1851 11.572 30.7851 11.916C 30.3851 12.26 29.9051 12.524 29.3451 12.708C 28.7851 12.892 28.1771 12.984 27.5211 12.984C 26.9531 12.984 26.4171 12.916 25.9131 12.78C 25.6571 12.94 25.4611 13.112 25.3251 13.296C 25.1891 13.472 25.1211 13.652 25.1211 13.836C 25.1211 14.124 25.2371 14.344 25.4691 14.496C 25.7091 14.64 26.0211 14.744 26.4051 14.808C 26.7891 14.872 27.2251 14.912 27.7131 14.928C 28.2091 14.944 28.7131 14.972 29.2251 15.012C 29.7451 15.044 30.2491 15.104 30.7371 15.192C 31.2331 15.28 31.6731 15.424 32.0571 15.624C 32.4411 15.824 32.7491 16.1 32.9811 16.452C 33.2211 16.804 33.3411 17.26 33.3411 17.82C 33.3411 18.34 33.2091 18.844 32.9451 19.332C 32.6891 19.82 32.3171 20.252 31.8291 20.628C 31.3411 21.012 30.7411 21.316 30.0291 21.54C 29.3251 21.772 28.5291 21.888 27.6411 21.888C 26.7531 21.888 25.9771 21.8 25.3131 21.624C 24.6491 21.448 24.0971 21.212 23.6571 20.916C 23.2171 20.62 22.8851 20.276 22.6611 19.884C 22.4451 19.5 22.3371 19.096 22.3371 18.672C 22.3371 18.072 22.5251 17.564 22.9011 17.148C 23.2771 16.732 23.7931 16.4 24.4491 16.152C 24.0891 15.992 23.8011 15.78 23.5851 15.516C 23.3771 15.244 23.2731 14.88 23.2731 14.424C 23.2731 14.248 23.3051 14.068 23.3691 13.884C 23.4331 13.692 23.5291 13.504 23.6571 13.32C 23.7931 13.128 23.9571 12.948 24.1491 12.78C 24.3411 12.612 24.5651 12.464 24.8211 12.336C 24.2211 12 23.7531 11.556 23.4171 11.004C 23.0811 10.444 22.9131 9.796 22.9131 9.06C 22.9131 8.468 23.0251 7.932 23.2491 7.452C 23.4811 6.964 23.8011 6.552 24.2091 6.216C 24.6171 5.872 25.1011 5.608 25.6611 5.424C 26.2291 5.24 26.8491 5.148 27.5211 5.148C 28.0491 5.148 28.5411 5.208 28.9971 5.328C 29.4531 5.44 29.8691 5.608 30.2451 5.832L 33.5451 5.832Z"/>
<path id="path3_fill" d="M 38.0098 5.352L 38.0098 17.508L 35.8738 17.508L 35.8738 5.352L 38.0098 5.352ZM 38.4658 1.536C 38.4658 1.744 38.4218 1.94 38.3338 2.124C 38.2538 2.3 38.1418 2.46 37.9978 2.604C 37.8618 2.74 37.6978 2.848 37.5058 2.928C 37.3218 3.008 37.1258 3.048 36.9178 3.048C 36.7098 3.048 36.5138 3.008 36.3298 2.928C 36.1538 2.848 35.9978 2.74 35.8618 2.604C 35.7258 2.46 35.6178 2.3 35.5378 2.124C 35.4578 1.94 35.4178 1.744 35.4178 1.536C 35.4178 1.328 35.4578 1.132 35.5378 0.948C 35.6178 0.756 35.7258 0.592 35.8618 0.456C 35.9978 0.312 36.1538 0.2 36.3298 0.12C 36.5138 0.04 36.7098 0 36.9178 0C 37.1258 0 37.3218 0.04 37.5058 0.12C 37.6978 0.2 37.8618 0.312 37.9978 0.456C 38.1418 0.592 38.2538 0.756 38.3338 0.948C 38.4218 1.132 38.4658 1.328 38.4658 1.536Z"/>
<path id="path4_fill" d="M 48.5994 7.356C 48.5034 7.532 48.3554 7.62 48.1554 7.62C 48.0354 7.62 47.8994 7.576 47.7474 7.488C 47.5954 7.4 47.4074 7.304 47.1834 7.2C 46.9674 7.088 46.7074 6.988 46.4034 6.9C 46.0994 6.804 45.7394 6.756 45.3234 6.756C 44.9634 6.756 44.6394 6.804 44.3514 6.9C 44.0634 6.988 43.8154 7.112 43.6074 7.272C 43.4074 7.432 43.2514 7.62 43.1394 7.836C 43.0354 8.044 42.9834 8.272 42.9834 8.52C 42.9834 8.832 43.0714 9.092 43.2474 9.3C 43.4314 9.508 43.6714 9.688 43.9674 9.84C 44.2634 9.992 44.5994 10.128 44.9754 10.248C 45.3514 10.36 45.7354 10.484 46.1274 10.62C 46.5274 10.748 46.9154 10.892 47.2914 11.052C 47.6674 11.212 48.0034 11.412 48.2994 11.652C 48.5954 11.892 48.8314 12.188 49.0074 12.54C 49.1914 12.884 49.2834 13.3 49.2834 13.788C 49.2834 14.348 49.1834 14.868 48.9834 15.348C 48.7834 15.82 48.4874 16.232 48.0954 16.584C 47.7034 16.928 47.2234 17.2 46.6554 17.4C 46.0874 17.6 45.4314 17.7 44.6874 17.7C 43.8394 17.7 43.0714 17.564 42.3834 17.292C 41.6954 17.012 41.1114 16.656 40.6314 16.224L 41.1354 15.408C 41.1994 15.304 41.2754 15.224 41.3634 15.168C 41.4514 15.112 41.5634 15.084 41.6994 15.084C 41.8434 15.084 41.9954 15.14 42.1554 15.252C 42.3154 15.364 42.5074 15.488 42.7314 15.624C 42.9634 15.76 43.2434 15.884 43.5714 15.996C 43.8994 16.108 44.3074 16.164 44.7954 16.164C 45.2114 16.164 45.5754 16.112 45.8874 16.008C 46.1994 15.896 46.4594 15.748 46.6674 15.564C 46.8754 15.38 47.0274 15.168 47.1234 14.928C 47.2274 14.688 47.2794 14.432 47.2794 14.16C 47.2794 13.824 47.1874 13.548 47.0034 13.332C 46.8274 13.108 46.5914 12.92 46.2954 12.768C 45.9994 12.608 45.6594 12.472 45.2754 12.36C 44.8994 12.24 44.5114 12.116 44.1114 11.988C 43.7194 11.86 43.3314 11.716 42.9474 11.556C 42.5714 11.388 42.2354 11.18 41.9394 10.932C 41.6434 10.684 41.4034 10.38 41.2194 10.02C 41.0434 9.652 40.9554 9.208 40.9554 8.688C 40.9554 8.224 41.0514 7.78 41.2434 7.356C 41.4354 6.924 41.7154 6.548 42.0834 6.228C 42.4514 5.9 42.9034 5.64 43.4394 5.448C 43.9754 5.256 44.5874 5.16 45.2754 5.16C 46.0754 5.16 46.7914 5.288 47.4234 5.544C 48.0634 5.792 48.6154 6.136 49.0794 6.576L 48.5994 7.356Z"/>
<path id="path5_fill" d="M 55.6343 17.7C 54.6743 17.7 53.9342 17.432 53.4142 16.896C 52.9022 16.36 52.6463 15.588 52.6463 14.58L 52.6463 7.14L 51.1823 7.14C 51.0543 7.14 50.9462 7.104 50.8582 7.032C 50.7702 6.952 50.7262 6.832 50.7262 6.672L 50.7262 5.82L 52.7183 5.568L 53.2103 1.812C 53.2343 1.692 53.2862 1.596 53.3662 1.524C 53.4542 1.444 53.5663 1.404 53.7023 1.404L 54.7822 1.404L 54.7822 5.592L 58.2982 5.592L 58.2982 7.14L 54.7822 7.14L 54.7822 14.436C 54.7822 14.948 54.9063 15.328 55.1543 15.576C 55.4023 15.824 55.7223 15.948 56.1143 15.948C 56.3383 15.948 56.5303 15.92 56.6903 15.864C 56.8583 15.8 57.0022 15.732 57.1222 15.66C 57.2422 15.588 57.3422 15.524 57.4222 15.468C 57.5102 15.404 57.5862 15.372 57.6502 15.372C 57.7622 15.372 57.8622 15.44 57.9502 15.576L 58.5742 16.596C 58.2062 16.94 57.7622 17.212 57.2422 17.412C 56.7222 17.604 56.1863 17.7 55.6343 17.7Z"/>
<path id="path6_fill" d="M 65.5575 5.16C 66.4455 5.16 67.2455 5.308 67.9575 5.604C 68.6695 5.9 69.2775 6.32 69.7815 6.864C 70.2855 7.408 70.6695 8.068 70.9335 8.844C 71.2055 9.612 71.3415 10.472 71.3415 11.424C 71.3415 12.384 71.2055 13.248 70.9335 14.016C 70.6695 14.784 70.2855 15.44 69.7815 15.984C 69.2775 16.528 68.6695 16.948 67.9575 17.244C 67.2455 17.532 66.4455 17.676 65.5575 17.676C 64.6615 17.676 63.8535 17.532 63.1335 17.244C 62.4215 16.948 61.8135 16.528 61.3095 15.984C 60.8055 15.44 60.4175 14.784 60.1455 14.016C 59.8815 13.248 59.7495 12.384 59.7495 11.424C 59.7495 10.472 59.8815 9.612 60.1455 8.844C 60.4175 8.068 60.8055 7.408 61.3095 6.864C 61.8135 6.32 62.4215 5.9 63.1335 5.604C 63.8535 5.308 64.6615 5.16 65.5575 5.16ZM 65.5575 16.008C 66.7575 16.008 67.6535 15.608 68.2455 14.808C 68.8375 14 69.1335 12.876 69.1335 11.436C 69.1335 9.988 68.8375 8.86 68.2455 8.052C 67.6535 7.244 66.7575 6.84 65.5575 6.84C 64.9495 6.84 64.4175 6.944 63.9615 7.152C 63.5135 7.36 63.1375 7.66 62.8335 8.052C 62.5375 8.444 62.3135 8.928 62.1615 9.504C 62.0175 10.072 61.9455 10.716 61.9455 11.436C 61.9455 12.876 62.2415 14 62.8335 14.808C 63.4335 15.608 64.3415 16.008 65.5575 16.008Z"/>
<path id="path7_fill" d="M 76.0787 7.788C 76.4627 6.956 76.9347 6.308 77.4947 5.844C 78.0547 5.372 78.7387 5.136 79.5467 5.136C 79.8027 5.136 80.0467 5.164 80.2787 5.22C 80.5187 5.276 80.7307 5.364 80.9147 5.484L 80.7587 7.08C 80.7107 7.28 80.5907 7.38 80.3987 7.38C 80.2867 7.38 80.1227 7.356 79.9067 7.308C 79.6907 7.26 79.4467 7.236 79.1747 7.236C 78.7907 7.236 78.4467 7.292 78.1427 7.404C 77.8467 7.516 77.5787 7.684 77.3387 7.908C 77.1067 8.124 76.8947 8.396 76.7027 8.724C 76.5187 9.044 76.3507 9.412 76.1987 9.828L 76.1987 17.508L 74.0507 17.508L 74.0507 5.352L 75.2747 5.352C 75.5067 5.352 75.6667 5.396 75.7547 5.484C 75.8427 5.572 75.9027 5.724 75.9347 5.94L 76.0787 7.788Z"/>
<path id="path8_fill" d="M 90.4367 10.104C 90.4367 9.608 90.3647 9.156 90.2207 8.748C 90.0847 8.332 89.8807 7.976 89.6087 7.68C 89.3447 7.376 89.0207 7.144 88.6367 6.984C 88.2527 6.816 87.8167 6.732 87.3287 6.732C 86.3047 6.732 85.4927 7.032 84.8927 7.632C 84.3007 8.224 83.9327 9.048 83.7887 10.104L 90.4367 10.104ZM 92.1647 15.804C 91.9007 16.124 91.5847 16.404 91.2167 16.644C 90.8487 16.876 90.4527 17.068 90.0287 17.22C 89.6127 17.372 89.1807 17.484 88.7327 17.556C 88.2847 17.636 87.8407 17.676 87.4007 17.676C 86.5607 17.676 85.7847 17.536 85.0727 17.256C 84.3687 16.968 83.7567 16.552 83.2367 16.008C 82.7247 15.456 82.3247 14.776 82.0367 13.968C 81.7487 13.16 81.6047 12.232 81.6047 11.184C 81.6047 10.336 81.7327 9.544 81.9887 8.808C 82.2527 8.072 82.6287 7.436 83.1167 6.9C 83.6047 6.356 84.2007 5.932 84.9047 5.628C 85.6087 5.316 86.4007 5.16 87.2807 5.16C 88.0087 5.16 88.6807 5.284 89.2967 5.532C 89.9207 5.772 90.4567 6.124 90.9047 6.588C 91.3607 7.044 91.7167 7.612 91.9727 8.292C 92.2287 8.964 92.3567 9.732 92.3567 10.596C 92.3567 10.932 92.3207 11.156 92.2487 11.268C 92.1767 11.38 92.0407 11.436 91.8407 11.436L 83.7167 11.436C 83.7407 12.204 83.8447 12.872 84.0287 13.44C 84.2207 14.008 84.4847 14.484 84.8207 14.868C 85.1567 15.244 85.5567 15.528 86.0207 15.72C 86.4847 15.904 87.0047 15.996 87.5807 15.996C 88.1167 15.996 88.5767 15.936 88.9607 15.816C 89.3527 15.688 89.6887 15.552 89.9687 15.408C 90.2487 15.264 90.4807 15.132 90.6647 15.012C 90.8567 14.884 91.0207 14.82 91.1567 14.82C 91.3327 14.82 91.4687 14.888 91.5647 15.024L 92.1647 15.804Z"/>
<path id="path9_stroke" d="M 1.5 6.5L 1.5 5.5L 0.568881 5.5L 0.502541 6.42875L 1.5 6.5ZM 0 27.5L -0.997459 27.4288L -1 27.4643L -1 27.5L 0 27.5ZM 22.5 6.5L 23.4963 6.4146L 23.418 5.5L 22.5 5.5L 22.5 6.5ZM 0.502541 6.42875L -0.997459 27.4288L 0.997459 27.5712L 2.49746 6.57125L 0.502541 6.42875ZM -1 27.5C -1 28.2434 -0.785219 29.3361 -0.111534 30.2718C 0.598863 31.2585 1.77408 32 3.5 32L 3.5 30C 2.42592 30 1.85114 29.5749 1.51153 29.1032C 1.13522 28.5805 1 27.9233 1 27.5L -1 27.5ZM 3.5 32C 6.3 32 16 32 20.5 32L 20.5 30C 16 30 6.3 30 3.5 30L 3.5 32ZM 20.5 32C 21.2434 32 22.3361 31.7852 23.2718 31.1115C 24.2585 30.4011 25 29.2259 25 27.5L 23 27.5C 23 28.5741 22.5749 29.1489 22.1032 29.4885C 21.5805 29.8648 20.9233 30 20.5 30L 20.5 32ZM 25 27.5C 25 24.6448 23.9938 12.2178 23.4963 6.4146L 21.5037 6.5854C 22.0062 12.4489 23 24.7552 23 27.5L 25 27.5ZM 22.5 5.5L 1.5 5.5L 1.5 7.5L 22.5 7.5L 22.5 5.5ZM 7.5 11L 7.5 5L 5.5 5L 5.5 11L 7.5 11ZM 7.5 5C 7.49686 4.24591 7.64255 3.25074 8.16653 2.37412C 8.62697 1.57474 9.32935 1 10.5 1L 10.5 -1C 8.47065 -1 7.17303 0.091923 6.43347 1.37588C 5.75745 2.58259 5.50314 4.08742 5.5 5L 7.5 5ZM 10.5 1C 12.1 1 12.9333 1 13.325 1C 13.5208 1 13.6063 1 13.6219 1C 13.6229 1 13.6236 1 13.624 1C 13.6242 1 13.6244 1 13.6245 1C 13.6245 1 13.6245 1 13.6246 1C 13.6246 1 13.6246 0 13.6246 -1C 13.6246 -1 13.6246 -1 13.6245 -1C 13.6244 -1 13.6232 -1 13.6211 -1C 13.617 -1 13.609 -1 13.598 -1C 13.576 -1 13.5417 -1 13.5 -1L 13.5 1C 13.5417 1 13.576 1 13.598 1C 13.609 1 13.617 1 13.6211 1C 13.6232 1 13.6244 1 13.6245 1C 13.6246 1 13.6246 1 13.6246 1C 13.6246 0 13.6246 -1 13.6246 -1C 13.6245 -1 13.6245 -1 13.6245 -1C 13.6244 -1 13.6242 -1 13.624 -1C 13.6236 -1 13.6229 -1 13.6219 -1C 13.6063 -1 13.5208 -1 13.325 -1C 12.9333 -1 12.1 -1 10.5 -1L 10.5 1ZM 13.5 1C 13.954 1 14.7054 1.18021 15.331 1.74329C 15.9247 2.27755 16.5 3.24198 16.5 5L 18.5 5C 18.5 2.75802 17.742 1.22245 16.669 0.256706C 15.6279 -0.680214 14.3793 -1 13.5 -1L 13.5 1ZM 16.5 5C 16.5 9 16.5 10.6667 16.5 11L 18.5 11C 18.5 10.6667 18.5 9 18.5 5L 16.5 5Z"/>
</defs>
</svg>
