<svg xmlns="http://www.w3.org/2000/svg" viewBox="0 0 78.4 34.31"><defs><style>.cls-1{fill:none;stroke:#00a1d8;stroke-linecap:round;stroke-linejoin:round;stroke-width:2.5px;}</style></defs><title>sapatos</title><g id="Camada_2" data-name="Camada 2"><g id="Camada_1-2" data-name="Camada 1"><path class="cls-1" d="M51,10.87,30.9,1.25S25.15,8.12,19.71,8.87s-12,.62-16-2.5c0,0-5.19,10.31-.5,17.94v8.75H23.59v-2.5s10,1.06,12.69,1.56,16.31.06,19.62-.31,20.83-2.26,21.25-11.5c.31-6.94-20.94-8.12-20.94-8.12"/><path class="cls-1" d="M26.09,26.19S8.52,25.06,3.21,24.31"/><path class="cls-1" d="M6.76,8.05s-3.41,9.4,1.46,16.8"/><line class="cls-1" x1="35.69" y1="3.54" x2="31.46" y2="8.05"/><line class="cls-1" x1="40.17" y1="5.8" x2="36.23" y2="10"/><line class="cls-1" x1="44.8" y1="7.9" x2="41" y2="11.96"/><path class="cls-1" d="M59.71,12.87s-.25,5.44-5.62,6.31-11.06.5-12.44,7.75"/><path class="cls-1" d="M31.46,26.94c.13-.19,17.19,1.69,27.81.38a39.4,39.4,0,0,0,17.87-7"/></g></g></svg>