<svg xmlns="http://www.w3.org/2000/svg" xmlns:xlink="http://www.w3.org/1999/xlink" viewBox="0 0 477.13 236.52"><defs><style>.cls-1{fill:url(#Gradiente_sem_nome_16);}.cls-2{fill:#d3d3d3;}.cls-3{fill:#7320dd;}.cls-4{fill:#393939;}.cls-5{fill:#444;}.cls-6{fill:#101010;}.cls-7{fill:#2d2d2d;}.cls-8{fill:#b6b7b1;}</style><radialGradient id="Gradiente_sem_nome_16" cx="246.17" cy="200.27" r="32" gradientTransform="translate(-1596.13 62.1) scale(7.45 0.75)" gradientUnits="userSpaceOnUse"><stop offset="0"/><stop offset="1" stop-color="#1d1d1b" stop-opacity="0"/></radialGradient></defs><title>tenis-banner</title><g id="Camada_2" data-name="Camada 2"><g id="Camada_1-2" data-name="Camada 1"><ellipse class="cls-1" cx="238.63" cy="212.49" rx="238.5" ry="24.03"/><path class="cls-2" d="M0,176s10.67,20,54.67,31.33L64,198l1.33,11.67L82.68,213l8.83-8.83,1.17,10s24,4.5,72.17,5.17,182.67-1.83,182.67-1.83l6.17-13.5,6.17,12.83,16-.5,6-13.83,6.5,12.83,15.5-.33,6-13.17L416,214l16.17-.83L438,199.83l6,12s14.33-3,18.17-8.83l-1-27s-16.5,6.67-40.67,9.17-67.61,1.5-99.94,7.17-84.89,16.83-123.23,18.83-123.5-9.5-148.17-22.67C49.18,188.5,10.68,182,0,176Z"/><path class="cls-3" d="M385,187.1h-.06c-21,.79-44.73,1.78-64.36,5.22-32.34,5.67-84.9,16.83-123.23,18.83s-123.5-9.5-148.17-22.66c0,0,68.5,10.33,110.34,10s64.08-2,85.07-5.65C270.34,188.33,288.67,182.33,385,187.1Z"/><path class="cls-2" d="M0,176s10.67,20,54.67,31.33L64,198l1.33,11.67L82.68,213l8.83-8.83,1.17,10s24,4.5,72.17,5.17,182.67-1.83,182.67-1.83l6.17-13.5,6.17,12.83,16-.5,6-13.83,6.5,12.83,15.5-.33,6-13.17L416,214l16.17-.83L438,199.83l6,12s14.33-3,18.17-8.83l-1-27s-16.5,6.67-40.67,9.17-67.61,1.5-99.94,7.17-84.89,16.83-123.23,18.83-123.5-9.5-148.17-22.67C49.18,188.5,10.68,182,0,176Z"/><path class="cls-4" d="M431.34,158.58c12.39-10.48,21.41-17.42,27.76-22C457.8,122.4,456,106.53,454,92.5c-41.58,5.17-53.17,49.08-67.92,71.83a69.07,69.07,0,0,1-4.62,6.3h0S400.59,184.58,431.34,158.58Z"/><path class="cls-5" d="M363.78,186.17c6.62.25,13.68.55,21.21.93h0c13.6-.52,26.06-1,35.56-2,24.16-2.5,40.66-9.16,40.66-9.16l0,.82c.6-4-.3-20.5-2.1-40.21-6.36,4.56-15.37,11.5-27.76,22-30.75,26-49.87,12-49.87,12h0A74.77,74.77,0,0,1,363.78,186.17Z"/><path class="cls-6" d="M438.84,35.5c-4-8.34-12.33-9-17.33-8.67s-11.84,13.83-11.84,13.83l-.5.39c-8.77,16.91-23,35.3-42.58,37-28.25,2.5-53.67-33.36-53.67-33.36h0a15.68,15.68,0,0,1-2.08-1.89C318,33.16,312.51,13,306.17,5s-12.83-4-12.83-4-12,7.83-17.33,12a113.06,113.06,0,0,1-11.82,8.36c35.41-3.94,45.15,20.47,45.15,20.47-35-17.25-92.25,13.5-122.5,33-18.36,11.83-39,21-52.41,26.37-7.07,4.3-14.49,8.8-20.15,12.17,7.22,2.88,15.73,6.11,24.81,9.21,25.58,8.75,11.25,24.75,11.25,24.75-24.75-17-53.5-6-53.5-6-34,15-53,13-66.25,9.25-4.84-1.37-9-6.84-12.28-13.23-1.17.82-2.38,1.7-3.64,2.65C-1,151.83,0,176,0,176H0l.07,0c10.76,6,49.08,12.45,49.08,12.45s68.5,10.33,110.34,10,64.08-2,85.07-5.65c23.75-4.17,41.18-9.59,119.2-6.68a73.21,73.21,0,0,0,22.31-21.84C400.84,141.58,412.43,97.67,454,92.5,449.17,59,442.84,43.83,438.84,35.5Z"/><path class="cls-4" d="M30.59,150.58c13.25,3.75,32.25,5.75,66.25-9.25,0,0,28.75-11,53.5,6,0,0,14.33-16-11.25-24.75-9.08-3.1-17.59-6.33-24.81-9.21l-.77.46c-14.84,8.83-31.67,11.67-53.67,12.5-20.22.76-28.2,1.68-41.53,11C21.62,143.74,25.75,149.21,30.59,150.58Z"/><path class="cls-4" d="M309.34,41.83s-9.74-24.41-45.15-20.47a188.67,188.67,0,0,1-19,10c-19,8.83-88.33,56.17-88.33,56.17s-10.71,6.57-22.41,13.7c13.41-5.38,34.05-14.53,52.41-26.37C217.09,55.33,274.34,24.58,309.34,41.83Z"/><path class="cls-4" d="M366.59,78.08c19.54-1.73,33.82-20.11,42.58-37C386.86,59.15,354.54,58.8,335.84,54.5c-12.84-3-19.79-7.31-22.92-9.78h0S338.34,80.58,366.59,78.08Z"/><circle class="cls-7" cx="193.18" cy="110.91" r="6.58"/><circle class="cls-7" cx="219.53" cy="92.26" r="6.58"/><circle class="cls-7" cx="245.22" cy="75.93" r="6.58"/><circle class="cls-7" cx="268.62" cy="61.06" r="6.58"/><path class="cls-8" d="M197.91,111.23a4.79,4.79,0,0,1-3.39,4.24,4.76,4.76,0,0,1-5.72-2.68,18.15,18.15,0,0,0-1.11-2.31c-2.81-4.63-9.42-15.28-12.52-18.32-4-3.91-11.32-12.73-17.91-5,0,0,1.33-9.3,11.58-5.88s22,19.17,22,19.17l6.25,7.58.2.46a4.84,4.84,0,0,1,.45,1.07A4.74,4.74,0,0,1,197.91,111.23Z"/><path class="cls-8" d="M224.66,92.89a4.79,4.79,0,0,1-3.39,4.24,4.76,4.76,0,0,1-5.72-2.68,18.15,18.15,0,0,0-1.11-2.31c-2.81-4.63-9.42-15.28-12.52-18.32-4-3.91-11.32-12.73-17.91-5,0,0,1.33-9.3,11.58-5.88s22,19.17,22,19.17l6.25,7.58.2.46a4.84,4.84,0,0,1,.45,1.07A4.74,4.74,0,0,1,224.66,92.89Z"/><path class="cls-8" d="M250.16,76.48a4.79,4.79,0,0,1-3.39,4.24A4.76,4.76,0,0,1,241.06,78a18.15,18.15,0,0,0-1.11-2.31c-2.81-4.63-9.42-15.28-12.52-18.32-4-3.91-11.32-12.73-17.91-5,0,0,1.33-9.3,11.58-5.88s22,19.17,22,19.17l6.25,7.58.2.46a4.84,4.84,0,0,1,.45,1.07A4.74,4.74,0,0,1,250.16,76.48Z"/><path class="cls-8" d="M273.91,61.73A4.79,4.79,0,0,1,270.52,66a4.76,4.76,0,0,1-5.72-2.68A18.15,18.15,0,0,0,263.7,61c-2.81-4.63-9.42-15.28-12.52-18.32-4-3.91-11.32-12.73-17.91-5,0,0,1.33-9.3,11.58-5.88s22,19.17,22,19.17l6.25,7.58.2.46a4.84,4.84,0,0,1,.45,1.07A4.74,4.74,0,0,1,273.91,61.73Z"/><path class="cls-3" d="M250.19,102l-24.4,11.07a166.35,166.35,0,0,1,17.45,65.56l.94-.29c4.29-1.38,9-2.61,13.71-3.68C259.61,155.22,257.4,125.32,250.19,102Z"/><path class="cls-3" d="M206.84,121.66l-24,10.67c13.33,13.67,26,52,26,52A106.43,106.43,0,0,0,224.33,183c-.62-19-11.52-49.56-16.21-61.89Z"/><path class="cls-3" d="M296.68,80.91l-27,12.24c7.58,37.68,8.15,47.06,8.31,59A162.43,162.43,0,0,1,276.82,171c8.17-1.33,14-2,14-2C303.68,132,296.68,80.91,296.68,80.91Z"/></g></g></svg>