<svg xmlns="http://www.w3.org/2000/svg" viewBox="0 0 79.75 37.15"><defs><style>.cls-1{fill:none;stroke:#00a1d8;stroke-linecap:round;stroke-linejoin:round;stroke-width:2.5px;}</style></defs><title>tenis</title><g id="Camada_2" data-name="Camada 2"><g id="Camada_1-2" data-name="Camada 1"><path class="cls-1" d="M2.25,29.27v5A1.62,1.62,0,0,0,3.88,35.9H57.13s19.5-1.37,21-9.25c0,0-11.5,3.88-21,3.88S2.25,29.27,2.25,29.27Z"/><path class="cls-1" d="M3.86,29.32c-2.39,0-2.61-3.54-2.61-3.54V6A2.61,2.61,0,0,1,3.86,3.65C6.25,3.65,7.5,3.77,7.5,5v2.5s7.38,3.5,9.75,3.62,5.75-3,7.38-4.5S29.25.9,31.13,1.27,59,12.77,59,12.77s7.25,3.13,9.63,3.5,7.63,1.13,8.5,3.63,2,4.57,1,6.75"/><path class="cls-1" d="M1.25,13.27s15.38,2.59,17.63,16"/><line class="cls-1" x1="14.27" y1="20.13" x2="52.88" y2="25.27"/><path class="cls-1" d="M23.75,21.3l9.82-6.52s3.18-.85,11.68.51,13.5.34,15.06-2"/><line class="cls-1" x1="32.36" y1="22.54" x2="42.63" y2="15.28"/><line class="cls-1" x1="40.19" y1="23.58" x2="49.51" y2="15.79"/><path class="cls-1" d="M48.13,30.4s5.5-7.47,10.5-7.86S73.4,19.92,75.26,18"/><line class="cls-1" x1="35.37" y1="2.86" x2="33" y2="6.9"/><line class="cls-1" x1="39.86" y1="4.88" x2="37.49" y2="8.92"/><line class="cls-1" x1="44.35" y1="6.9" x2="41.98" y2="10.93"/><line class="cls-1" x1="48.84" y1="8.92" x2="46.47" y2="12.95"/></g></g></svg>